# Blender 4.5.3 LTS
# www.blender.org
mtllib Arch.mtl
o Cube
v 0.800000 5.000000 -3.876457
v 0.800000 0.000000 -3.876457
v 0.800000 5.000000 -2.429677
v 0.800000 0.000000 -2.429677
v -0.800000 5.000000 -3.876457
v -0.800000 0.000000 -3.876457
v -0.800000 5.000000 -2.429677
v -0.800000 0.000000 -2.429677
v -0.800000 0.000000 3.876458
v -0.800000 5.000000 3.876458
v -0.800000 0.000000 2.429677
v -0.800000 5.000000 2.429677
v 0.800000 0.000000 3.876458
v 0.800000 5.000000 3.876458
v 0.800000 0.000000 2.429677
v 0.800000 5.000000 2.429677
v 0.800000 6.676585 -3.063457
v 1.029535 6.676585 -1.971209
v -0.800000 6.676585 -3.063457
v -1.029535 6.676585 -1.971209
v -0.800000 6.676585 3.063457
v -1.029535 6.676585 1.971210
v 0.800000 6.676585 3.063457
v 1.029535 6.676585 1.971210
v 0.800000 7.676585 -1.761469
v 0.800000 7.676585 -0.880734
v -0.800000 7.676585 -1.761469
v -0.800000 7.676585 -0.880734
v -0.800000 7.676585 1.761469
v -0.800000 7.676585 0.880734
v 0.800000 7.676585 1.761469
v 0.800000 7.676585 0.880734
v 0.754357 7.963053 -0.315256
v 0.754357 7.799483 -0.315256
v -0.754357 7.963053 -0.315256
v -0.754357 7.799483 -0.315256
v -0.754357 7.963053 0.315256
v -0.754357 7.799483 0.315256
v 0.754357 7.963053 0.315256
v 0.754357 7.799483 0.315256
vn -0.9954 -0.0340 -0.0900
vn -0.0000 -0.0000 1.0000
vn -1.0000 -0.0000 -0.0000
vn -0.0000 -1.0000 -0.0000
vn 1.0000 -0.0000 -0.0000
vn -0.0000 -0.0000 -1.0000
vn 0.9954 -0.0340 0.0900
vn -0.0000 -0.7370 0.6759
vn -0.9631 0.2446 -0.1121
vn 0.9954 -0.0340 -0.0900
vn -0.9954 -0.0340 0.0900
vn -0.0000 0.4363 0.8998
vn -0.0000 0.4363 -0.8998
vn -0.0000 -0.2638 -0.9646
vn -0.0000 -0.2638 0.9646
vn -0.9930 0.1158 -0.0215
vn 0.9930 0.1158 -0.0215
vn -0.0000 0.7931 0.6091
vn -0.0000 -0.7370 -0.6759
vn -0.0000 0.7931 -0.6091
vn 0.9631 0.2446 -0.1121
vn 0.9631 0.2446 0.1121
vn -0.9631 0.2446 0.1121
vn -0.0000 1.0000 -0.0000
vn -0.9930 0.1158 0.0215
vn -0.0000 -0.9772 0.2124
vn -0.0000 0.9809 0.1943
vn -0.0000 -0.9772 -0.2124
vn -0.0000 0.9809 -0.1943
vn 0.9930 0.1158 0.0215
vt 0.625000 0.250000
vt 0.625000 0.000000
vt 0.375000 0.750000
vt 0.625000 0.750000
vt 0.625000 1.000000
vt 0.375000 1.000000
vt 0.375000 0.000000
vt 0.375000 0.250000
vt 0.125000 0.500000
vt 0.375000 0.500000
vt 0.125000 0.750000
vt 0.625000 0.500000
s 0
usemtl Material
f 5/1/1 7/2/1 20/2/1 19/1/1
f 4/3/2 3/4/2 7/5/2 8/6/2
f 8/7/3 7/2/3 5/1/3 6/8/3
f 6/9/4 2/10/4 4/3/4 8/11/4
f 2/10/5 1/12/5 3/4/5 4/3/5
f 6/8/6 5/1/6 1/12/6 2/10/6
f 9/7/3 10/2/3 12/1/3 11/8/3
f 11/8/6 12/1/6 16/12/6 15/10/6
f 15/10/5 16/12/5 14/4/5 13/3/5
f 13/3/2 14/4/2 10/5/2 9/6/2
f 11/9/4 15/10/4 13/3/4 9/11/4
f 14/4/7 16/12/7 24/12/7 23/4/7
f 20/5/8 18/4/8 26/4/8 28/5/8
f 19/1/9 20/2/9 28/2/9 27/1/9
f 3/4/10 1/12/10 17/12/10 18/4/10
f 12/1/11 10/2/11 21/2/11 22/1/11
f 10/5/12 14/4/12 23/4/12 21/5/12
f 1/12/13 5/1/13 19/1/13 17/12/13
f 16/12/14 12/1/14 22/1/14 24/12/14
f 7/5/15 3/4/15 18/4/15 20/5/15
f 30/1/16 29/2/16 37/2/16 38/1/16
f 31/4/17 32/12/17 40/12/17 39/4/17
f 21/5/18 23/4/18 31/4/18 29/5/18
f 24/12/19 22/1/19 30/1/19 32/12/19
f 17/12/20 19/1/20 27/1/20 25/12/20
f 18/4/21 17/12/21 25/12/21 26/4/21
f 23/4/22 24/12/22 32/12/22 31/4/22
f 22/1/23 21/2/23 29/2/23 30/1/23
f 35/1/24 37/2/24 39/4/24 33/12/24
f 36/2/3 38/1/3 37/2/3 35/1/3
f 27/1/25 28/2/25 36/2/25 35/1/25
f 28/5/26 26/4/26 34/4/26 36/5/26
f 29/5/27 31/4/27 39/4/27 37/5/27
f 32/12/28 30/1/28 38/1/28 40/12/28
f 25/12/29 27/1/29 35/1/29 33/12/29
f 26/4/30 25/12/30 33/12/30 34/4/30
f 33/12/5 39/4/5 40/12/5 34/4/5
f 34/4/4 40/12/4 38/1/4 36/2/4
