# Blender 4.5.3 LTS
# www.blender.org
mtllib LongRock.mtl
o Cube
v 2.379938 1.434961 -1.037249
v 2.309800 0.101537 -0.929424
v 2.180503 1.215787 0.668255
v 2.269974 0.074542 0.758198
v -2.272584 1.310621 -0.883870
v -2.391366 -0.042588 -1.054805
v -2.347202 1.418812 1.000000
v -2.347202 0.000000 1.000000
v -2.567539 -0.210526 -0.006252
v 0.000003 0.000009 -1.094731
v 2.430272 0.696604 -1.061514
v -2.349654 0.709835 1.003292
v 2.189146 0.669259 0.723267
v -2.431697 0.708574 -1.083983
v 0.000000 1.418812 1.029705
v 2.293484 1.359686 -0.007175
v 0.000000 0.000000 1.000000
v -2.432768 1.555327 -0.013124
v 0.000000 1.418812 -1.003384
v 2.521804 -0.178797 -0.010513
v 0.000000 0.709406 -1.314879
v 2.725887 0.741174 0.025556
v -0.019409 -0.360083 -0.002627
v -2.729907 0.681792 -0.007747
v 0.000000 0.709406 1.277047
v 0.000244 1.749332 0.006159
v -2.488345 -0.143467 0.535175
v -1.171381 -0.003461 -1.064761
v 2.486159 0.339892 -1.116676
v -2.474488 1.087111 1.170929
v 2.204808 0.329049 0.769514
v -2.440779 0.330140 -1.110456
v -1.173601 1.418812 1.000000
v 2.184718 1.290000 0.410993
v 1.170579 0.084998 0.910100
v -2.386651 1.486080 -0.503449
v 1.173601 1.418812 -1.060033
v 2.528280 -0.174389 -0.515042
v -2.457110 -0.105770 -0.527562
v 1.173601 0.000000 -1.064284
v 2.378816 1.046627 -1.002799
v -2.456396 0.338935 1.143245
v 2.211400 0.974218 0.705603
v -2.294076 0.994778 -0.905577
v 1.135324 1.047946 0.636569
v 2.347202 1.418812 -0.500000
v -1.173601 0.000000 1.020778
v -2.447506 1.542171 0.524118
v -1.151679 1.256621 -0.839667
v 2.494346 -0.155748 0.472654
v 1.173601 0.709406 -1.295663
v -1.163114 0.711113 -1.284811
v 0.000007 0.354728 -1.257802
v 0.000000 1.064109 -1.286377
v 2.553363 0.709740 0.500358
v 2.777921 0.715777 -0.512736
v 2.747528 0.327819 0.004287
v 2.594547 1.090385 0.011604
v -0.008610 -0.217377 0.523683
v -0.006705 -0.301491 -0.522383
v -1.190379 -0.261508 0.000997
v 1.161228 -0.355401 -0.023699
v -2.661655 0.693102 -0.516662
v -2.657250 0.701015 0.521971
v -2.805099 0.307359 -0.023677
v -2.708206 1.105928 0.002054
v -1.173601 0.709406 1.251263
v 1.140838 0.754217 0.709262
v 0.000000 0.354703 1.251729
v 0.000000 1.064109 1.242298
v 0.000000 1.638228 0.500000
v 0.000000 1.660777 -0.500000
v 1.180287 1.626494 0.000974
v -1.190211 1.768185 0.008165
v -1.173601 1.642623 -0.500000
v 1.173601 1.619166 -0.500000
v 1.173601 1.608063 0.500000
v 1.115631 0.882919 0.675103
v 1.143261 0.439422 0.895310
v -1.173601 0.354703 1.222722
v -2.656257 1.083163 0.515957
v -2.658675 0.342989 0.526910
v -2.762381 0.303925 -0.542545
v 1.162292 -0.360357 -0.533481
v -1.186994 -0.297562 -0.529784
v -1.192108 -0.332744 0.530297
v 2.546585 1.133865 -0.501008
v 2.619763 0.313442 -0.517066
v 2.523012 0.354703 0.500000
v -1.168002 1.068295 -1.182280
v -1.163094 0.351911 -1.288539
v 1.173601 0.354703 -1.286175
v 1.173601 1.064109 -1.293561
v 2.404698 1.075585 0.533671
v 1.149455 -0.139118 0.461119
v -2.617653 1.076090 -0.508922
v -1.173601 1.064109 1.218482
v -1.173601 1.579138 0.500000
vn -0.0117 0.9599 0.2802
vn -0.0121 0.4951 0.8688
vn -0.7879 0.2943 -0.5410
vn 0.0211 -0.8476 0.5302
vn 0.6550 0.5443 0.5241
vn 0.1248 0.2566 -0.9584
vn 0.1556 0.0755 -0.9849
vn 0.0003 -0.0745 -0.9972
vn -0.1260 0.7508 -0.6484
vn 0.5820 0.0413 0.8121
vn 0.9846 -0.1628 -0.0643
vn 0.7391 0.6697 0.0726
vn 0.0482 -0.8687 0.4930
vn -0.0435 -0.9988 -0.0221
vn 0.1318 -0.9913 0.0015
vn -0.8906 0.1565 -0.4270
vn -0.9762 0.0992 0.1929
vn -0.8813 0.4701 0.0473
vn -0.1311 0.1693 0.9768
vn 0.3552 0.2194 0.9087
vn 0.4401 0.3771 0.8149
vn 0.2353 0.6248 0.7445
vn 0.0692 0.9931 -0.0950
vn -0.1439 0.9695 -0.1982
vn 0.0001 0.9784 -0.2065
vn -0.1037 0.7964 -0.5959
vn -0.0219 0.7864 -0.6173
vn 0.2000 0.9779 0.0604
vn 0.0777 0.9836 -0.1628
vn 0.0071 0.9233 -0.3840
vn 0.0619 0.5235 0.8498
vn 0.2687 0.9550 0.1256
vn 0.0646 0.9895 0.1295
vn 0.4515 0.1489 0.8797
vn -0.0210 0.1185 0.9927
vn -0.0505 0.1819 0.9820
vn 0.2019 -0.3034 0.9312
vn 0.1288 0.0252 0.9913
vn 0.0808 0.3351 0.9387
vn -0.0335 -0.4495 0.8926
vn -0.0030 -0.5388 0.8425
vn -0.0233 -0.0757 0.9969
vn -0.9926 0.0274 0.1186
vn -0.8933 -0.2281 0.3873
vn -0.8679 0.4226 0.2611
vn -0.9055 -0.3621 0.2211
vn -0.8786 -0.3506 0.3243
vn -0.8864 0.2132 0.4108
vn -0.8470 -0.4141 -0.3334
vn -0.8473 -0.5019 -0.1736
vn -0.9681 0.2286 -0.1028
vn -0.0237 -0.9983 -0.0523
vn -0.0173 -0.8573 -0.5146
vn 0.1281 -0.8095 -0.5730
vn -0.0909 -0.9931 -0.0747
vn -0.0595 -0.9448 -0.3223
vn -0.0047 -0.8806 -0.4738
vn -0.0710 -0.8879 0.4545
vn -0.0895 -0.9960 0.0026
vn 0.0074 -0.9977 0.0675
vn 0.9040 0.4273 0.0109
vn 0.8282 0.3454 -0.4413
vn 0.9514 0.2731 -0.1423
vn 0.9474 -0.3008 -0.1091
vn 0.8182 -0.4075 -0.4056
vn 0.9180 -0.0935 -0.3853
vn 0.7149 -0.0012 0.6993
vn 0.9359 -0.2446 0.2534
vn 0.9254 -0.0211 0.3785
vn -0.0561 0.1804 -0.9820
vn -0.1900 0.4255 -0.8848
vn -0.0883 0.5878 -0.8042
vn 0.0016 -0.4784 -0.8781
vn -0.0613 -0.3606 -0.9307
vn -0.1475 0.0423 -0.9882
vn 0.1203 -0.5877 -0.8001
vn 0.0008 -0.4769 -0.8789
vn -0.0039 -0.0934 -0.9956
vn 0.2087 0.0992 -0.9729
vn 0.0051 0.0431 -0.9991
vn -0.0220 0.5885 -0.8082
vn 0.5610 0.0865 0.8233
vn 0.8802 0.3356 0.3355
vn 0.6172 0.7417 0.2627
vn 0.0910 -0.8999 0.4265
vn 0.0453 -0.9414 0.3343
vn 0.0551 -0.9688 0.2418
vn -0.8011 0.3521 -0.4840
vn -0.9844 0.0835 -0.1548
vn -0.8505 0.4993 -0.1655
vn -0.1180 -0.1993 0.9728
vn -0.0210 0.0947 0.9953
vn -0.0195 0.5192 0.8544
vn -0.0280 0.9379 0.3459
vn -0.0160 0.9564 0.2915
vn -0.0967 0.9766 0.1921
vt 0.812500 0.687500
vt 0.875000 0.687500
vt 0.875000 0.750000
vt 0.812500 0.750000
vt 0.562500 0.937500
vt 0.625000 0.937500
vt 0.625000 1.000000
vt 0.562500 1.000000
vt 0.562500 0.187500
vt 0.625000 0.187500
vt 0.625000 0.250000
vt 0.562500 0.250000
vt 0.312500 0.687500
vt 0.375000 0.687500
vt 0.375000 0.750000
vt 0.312500 0.750000
vt 0.562500 0.687500
vt 0.625000 0.687500
vt 0.625000 0.750000
vt 0.562500 0.750000
vt 0.562500 0.437500
vt 0.625000 0.437500
vt 0.625000 0.500000
vt 0.562500 0.500000
vt 0.437500 0.437500
vt 0.500000 0.437500
vt 0.500000 0.500000
vt 0.437500 0.500000
vt 0.437500 0.312500
vt 0.500000 0.312500
vt 0.500000 0.375000
vt 0.437500 0.375000
vt 0.562500 0.312500
vt 0.625000 0.312500
vt 0.625000 0.375000
vt 0.562500 0.375000
vt 0.437500 0.687500
vt 0.500000 0.687500
vt 0.500000 0.750000
vt 0.437500 0.750000
vt 0.437500 0.562500
vt 0.500000 0.562500
vt 0.500000 0.625000
vt 0.437500 0.625000
vt 0.562500 0.562500
vt 0.625000 0.562500
vt 0.625000 0.625000
vt 0.562500 0.625000
vt 0.187500 0.687500
vt 0.250000 0.687500
vt 0.250000 0.750000
vt 0.187500 0.750000
vt 0.187500 0.562500
vt 0.250000 0.562500
vt 0.250000 0.625000
vt 0.187500 0.625000
vt 0.312500 0.562500
vt 0.375000 0.562500
vt 0.375000 0.625000
vt 0.312500 0.625000
vt 0.437500 0.187500
vt 0.500000 0.187500
vt 0.500000 0.250000
vt 0.437500 0.250000
vt 0.437500 0.062500
vt 0.500000 0.062500
vt 0.500000 0.125000
vt 0.437500 0.125000
vt 0.562500 0.062500
vt 0.625000 0.062500
vt 0.625000 0.125000
vt 0.562500 0.125000
vt 0.437500 0.937500
vt 0.500000 0.937500
vt 0.500000 1.000000
vt 0.437500 1.000000
vt 0.437500 0.812500
vt 0.500000 0.812500
vt 0.500000 0.875000
vt 0.437500 0.875000
vt 0.562500 0.812500
vt 0.625000 0.812500
vt 0.625000 0.875000
vt 0.562500 0.875000
vt 0.687500 0.687500
vt 0.750000 0.687500
vt 0.750000 0.750000
vt 0.687500 0.750000
vt 0.687500 0.562500
vt 0.750000 0.562500
vt 0.750000 0.625000
vt 0.687500 0.625000
vt 0.812500 0.562500
vt 0.875000 0.562500
vt 0.875000 0.625000
vt 0.812500 0.625000
vt 0.750000 0.500000
vt 0.812500 0.500000
vt 0.875000 0.500000
vt 0.687500 0.500000
vt 0.375000 0.812500
vt 0.375000 0.875000
vt 0.375000 0.937500
vt 0.375000 1.000000
vt 0.500000 0.000000
vt 0.562500 0.000000
vt 0.625000 0.000000
vt 0.375000 0.062500
vt 0.375000 0.125000
vt 0.375000 0.000000
vt 0.437500 0.000000
vt 0.375000 0.187500
vt 0.375000 0.250000
vt 0.250000 0.500000
vt 0.312500 0.500000
vt 0.375000 0.500000
vt 0.125000 0.562500
vt 0.125000 0.625000
vt 0.125000 0.500000
vt 0.187500 0.500000
vt 0.125000 0.687500
vt 0.125000 0.750000
vt 0.375000 0.312500
vt 0.375000 0.375000
vt 0.375000 0.437500
s 0
usemtl Material
f 98/1/1 48/2/1 7/3/1 33/4/1
f 97/5/2 33/6/2 7/7/2 30/8/2
f 96/9/3 36/10/3 5/11/3 44/12/3
f 95/13/4 50/14/4 4/15/4 35/16/4
f 94/17/5 34/18/5 3/19/5 43/20/5
f 93/21/6 37/22/6 1/23/6 41/24/6
f 92/25/7 51/26/7 11/27/7 29/28/7
f 91/29/8 52/30/8 21/31/8 53/32/8
f 90/33/9 49/34/9 19/35/9 54/36/9
f 89/37/10 55/38/10 13/39/10 31/40/10
f 88/41/11 56/42/11 22/43/11 57/44/11
f 87/45/12 46/46/12 16/47/12 58/48/12
f 86/49/13 59/50/13 17/51/13 47/52/13
f 85/53/14 60/54/14 23/55/14 61/56/14
f 84/57/15 38/58/15 20/59/15 62/60/15
f 83/61/16 63/62/16 14/63/16 32/64/16
f 82/65/17 64/66/17 24/67/17 65/68/17
f 81/69/18 48/70/18 18/71/18 66/72/18
f 80/73/19 67/74/19 12/75/19 42/76/19
f 79/77/20 68/78/20 25/79/20 69/80/20
f 78/81/21 45/82/21 15/83/21 70/84/21
f 77/85/22 71/86/22 15/87/22 45/88/22
f 76/89/23 72/90/23 26/91/23 73/92/23
f 75/93/24 36/94/24 18/95/24 74/96/24
f 72/90/25 75/93/25 74/96/25 26/91/25
f 19/97/26 49/98/26 75/93/26 72/90/26
f 49/98/27 5/99/27 36/94/27 75/93/27
f 46/46/28 76/89/28 73/92/28 16/47/28
f 1/23/29 37/100/29 76/89/29 46/46/29
f 37/100/30 19/97/30 72/90/30 76/89/30
f 34/18/31 77/85/31 45/88/31 3/19/31
f 16/47/32 73/92/32 77/85/32 34/18/32
f 73/92/33 26/91/33 71/86/33 77/85/33
f 68/78/34 78/81/34 70/84/34 25/79/34
f 13/39/35 43/20/35 78/81/35 68/78/35
f 43/20/36 3/19/36 45/82/36 78/81/36
f 35/101/37 79/77/37 69/80/37 17/102/37
f 4/15/38 31/40/38 79/77/38 35/101/38
f 31/40/39 13/39/39 68/78/39 79/77/39
f 47/103/40 80/73/40 42/76/40 8/104/40
f 17/102/41 69/80/41 80/73/41 47/103/41
f 69/80/42 25/79/42 67/74/42 80/73/42
f 64/66/43 81/69/43 66/72/43 24/67/43
f 12/105/44 30/106/44 81/69/44 64/66/44
f 30/106/45 7/107/45 48/70/45 81/69/45
f 27/108/46 82/65/46 65/68/46 9/109/46
f 8/110/47 42/111/47 82/65/47 27/108/47
f 42/111/48 12/105/48 64/66/48 82/65/48
f 39/112/49 83/61/49 32/64/49 6/113/49
f 9/109/50 65/68/50 83/61/50 39/112/50
f 65/68/51 24/67/51 63/62/51 83/61/51
f 60/54/52 84/57/52 62/60/52 23/55/52
f 10/114/53 40/115/53 84/57/53 60/54/53
f 40/115/54 2/116/54 38/58/54 84/57/54
f 39/117/55 85/53/55 61/56/55 9/118/55
f 6/119/56 28/120/56 85/53/56 39/117/56
f 28/120/57 10/114/57 60/54/57 85/53/57
f 27/121/58 86/49/58 47/52/58 8/122/58
f 9/118/59 61/56/59 86/49/59 27/121/59
f 61/56/60 23/55/60 59/50/60 86/49/60
f 56/42/61 87/45/61 58/48/61 22/43/61
f 11/27/62 41/24/62 87/45/62 56/42/62
f 41/24/63 1/23/63 46/46/63 87/45/63
f 38/58/64 88/41/64 57/44/64 20/59/64
f 2/116/65 29/28/65 88/41/65 38/58/65
f 29/28/66 11/27/66 56/42/66 88/41/66
f 50/14/67 89/37/67 31/40/67 4/15/67
f 20/59/68 57/44/68 89/37/68 50/14/68
f 57/44/69 22/43/69 55/38/69 89/37/69
f 52/30/70 90/33/70 54/36/70 21/31/70
f 14/63/71 44/12/71 90/33/71 52/30/71
f 44/12/72 5/11/72 49/34/72 90/33/72
f 28/123/73 91/29/73 53/32/73 10/124/73
f 6/113/74 32/64/74 91/29/74 28/123/74
f 32/64/75 14/63/75 52/30/75 91/29/75
f 40/125/76 92/25/76 29/28/76 2/116/76
f 10/124/77 53/32/77 92/25/77 40/125/77
f 53/32/78 21/31/78 51/26/78 92/25/78
f 51/26/79 93/21/79 41/24/79 11/27/79
f 21/31/80 54/36/80 93/21/80 51/26/80
f 54/36/81 19/35/81 37/22/81 93/21/81
f 55/38/82 94/17/82 43/20/82 13/39/82
f 22/43/83 58/48/83 94/17/83 55/38/83
f 58/48/84 16/47/84 34/18/84 94/17/84
f 59/50/85 95/13/85 35/16/85 17/51/85
f 23/55/86 62/60/86 95/13/86 59/50/86
f 62/60/87 20/59/87 50/14/87 95/13/87
f 63/62/88 96/9/88 44/12/88 14/63/88
f 24/67/89 66/72/89 96/9/89 63/62/89
f 66/72/90 18/71/90 36/10/90 96/9/90
f 67/74/91 97/5/91 30/8/91 12/75/91
f 25/79/92 70/84/92 97/5/92 67/74/92
f 70/84/93 15/83/93 33/6/93 97/5/93
f 71/86/94 98/1/94 33/4/94 15/87/94
f 26/91/95 74/96/95 98/1/95 71/86/95
f 74/96/96 18/95/96 48/2/96 98/1/96
