# Blender 4.5.3 LTS
# www.blender.org
mtllib Pyramid.mtl
o Cube
v -75.268997 0.000000 75.268997
v -75.268997 0.000000 -75.268997
v 55.999992 22.000000 9.999999
v 0.000000 100.000000 0.000000
v 75.268997 0.000000 75.268997
v 55.999992 22.000000 -9.999999
v 75.268997 0.000000 -75.268997
v 55.999992 0.000000 -9.999999
v 55.999992 0.000000 9.999999
v 75.268997 0.000000 9.999999
v 75.268997 0.000000 -9.999999
v 58.709820 22.000000 9.999999
v 58.709820 22.000000 -9.999999
vn -0.7990 0.6014 -0.0000
vn -0.0000 0.6014 0.7990
vn -0.0000 -1.0000 -0.0000
vn -0.0000 0.6014 -0.7990
vn 0.7990 0.6014 -0.0000
vn 1.0000 -0.0000 -0.0000
vn -0.0000 -0.0000 1.0000
vn -0.0000 -0.0000 -1.0000
vt 0.125000 0.500000
vt 0.125000 0.750000
vt 0.000000 0.000000
vt 0.375000 0.750000
vt 0.375000 0.641607
vt 0.375000 0.500000
vt 0.375000 0.608393
vt 0.343000 0.608393
vt 0.343000 0.641607
vt 0.292500 0.504107
vt 0.292500 0.470893
vt 0.395833 0.250000
vt 0.625000 0.250000
vt 0.625000 0.000000
vt 0.395833 0.000000
vt 0.625000 0.283873
vt 0.395833 0.490862
vt 0.625000 0.966127
vt 0.395833 0.759138
vt 0.395833 1.000000
vt 0.625000 1.000000
vt 0.875000 0.750000
vt 0.875000 0.500000
vt 0.841127 0.500000
vt 0.841127 0.750000
s 0
f 2/1/1 1/2/1 4/3/1
f 4/3/2 1/2/2 5/4/2
f 10/5/3 5/4/3 1/2/3 2/1/3 7/6/3 11/7/3 8/8/3 9/9/3
f 4/3/4 7/6/4 2/1/4
f 7/6/5 4/3/5 5/4/5 10/5/5 12/10/5 13/11/5 11/7/5
f 8/12/6 6/13/6 3/14/6 9/15/6
f 13/16/7 6/13/7 8/12/7 11/17/7
f 12/18/8 10/19/8 9/20/8 3/21/8
f 3/22/3 6/23/3 13/24/3 12/25/3
