# Blender 4.5.3 LTS
# www.blender.org
mtllib PyramidDoor.mtl
o Door
v 54.000000 -0.215270 15.200000
v 55.022366 15.663087 -6.898408
v 54.000000 24.258102 15.200000
v 54.000000 -0.215270 -15.200000
v 54.000000 24.258102 -15.200000
v 56.000000 -0.215270 15.200000
v 56.000000 24.258102 15.200000
v 56.000000 -0.215270 -15.200000
v 56.000000 24.258102 -15.200000
v 55.022366 11.663087 -6.898408
v 55.022366 7.663087 -6.898408
v 55.022366 3.663087 -6.898408
v 55.022366 15.663086 -2.298408
v 55.022366 11.663086 -2.298408
v 55.022366 7.663086 -2.298408
v 55.022366 3.663086 -2.298408
v 55.022366 15.663085 2.301592
v 55.022366 11.663085 2.301592
v 55.022366 7.663085 2.301592
v 55.022366 3.663085 2.301592
v 55.022366 15.663084 6.901592
v 55.022366 11.663084 6.901592
v 55.022366 7.663084 6.901592
v 55.022366 3.663084 6.901592
v 56.000000 15.174269 3.279226
v 56.000000 16.151901 3.279226
v 56.000000 14.685452 2.790409
v 56.000000 14.685452 1.812775
v 56.000000 16.640720 2.790409
v 56.000000 16.151901 1.323958
v 56.000000 15.174269 1.323958
v 56.000000 15.174269 -1.320774
v 56.000000 11.174269 -1.320774
v 56.000000 12.151903 -1.320774
v 56.000000 16.640720 1.812775
v 56.000000 14.685452 -1.809591
v 56.000000 12.640720 -1.809591
v 56.000000 12.640720 -2.787225
v 56.000000 14.685452 -2.787225
v 56.000000 15.174269 -3.276042
v 56.000000 16.151903 -3.276042
v 56.000000 16.151903 -1.320774
v 56.000000 16.640720 -2.787225
v 56.000000 16.640720 -1.809591
v 56.000000 10.685452 -1.809591
v 56.000000 10.685452 -2.787225
v 56.000000 11.174269 -3.276042
v 56.000000 12.151903 -3.276042
v 56.000000 16.151905 -7.876042
v 56.000000 15.174270 -7.876042
v 56.000000 11.174270 -7.876042
v 56.000000 8.151904 -7.876042
v 56.000000 12.151904 -7.876042
v 56.000000 7.174270 -7.876042
v 56.000000 8.640721 -7.387225
v 56.000000 10.685452 -7.387225
v 56.000000 14.685452 -7.387225
v 56.000000 12.640721 -7.387225
v 56.000000 16.640722 -7.387225
v 56.000000 6.685452 -7.387225
v 56.000000 8.151904 -5.920774
v 56.000000 8.640721 -6.409591
v 56.000000 10.685452 -6.409591
v 56.000000 11.174270 -5.920774
v 56.000000 12.151904 -5.920774
v 56.000000 12.640721 -6.409591
v 56.000000 14.685452 -6.409591
v 56.000000 15.174270 -5.920774
v 56.000000 16.151905 -5.920774
v 56.000000 16.640722 -6.409591
v 56.000000 3.174267 7.879226
v 56.000000 4.151901 7.879226
v 56.000000 7.174267 7.879226
v 56.000000 8.151901 7.879226
v 56.000000 11.174268 7.879226
v 56.000000 12.151902 7.879226
v 56.000000 15.174267 7.879226
v 56.000000 16.151901 7.879226
v 56.000000 6.685449 7.390409
v 56.000000 4.640718 7.390409
v 56.000000 4.640718 6.412775
v 56.000000 6.685449 6.412775
v 56.000000 2.685450 6.412775
v 56.000000 2.685450 7.390409
v 56.000000 8.640718 7.390409
v 56.000000 10.685451 7.390409
v 56.000000 12.640719 7.390409
v 56.000000 14.685451 7.390409
v 56.000000 16.640720 7.390409
v 56.000000 2.685451 2.790409
v 56.000000 3.174268 3.279226
v 56.000000 3.174267 5.923958
v 56.000000 4.151901 5.923958
v 56.000000 4.151903 3.279226
v 56.000000 6.685451 2.790409
v 56.000000 7.174268 3.279226
v 56.000000 7.174267 5.923958
v 56.000000 8.151901 5.923958
v 56.000000 8.151902 3.279226
v 56.000000 8.640718 6.412775
v 56.000000 12.151902 5.923958
v 56.000000 11.174268 5.923958
v 56.000000 11.174268 3.279226
v 56.000000 12.151902 3.279226
v 56.000000 12.640719 6.412775
v 56.000000 4.640719 2.790409
v 56.000000 10.685451 6.412775
v 56.000000 14.685451 6.412775
v 56.000000 15.174267 5.923958
v 56.000000 16.151901 5.923958
v 56.000000 16.640720 6.412775
v 56.000000 10.685451 2.790409
v 56.000000 8.640719 2.790409
v 56.000000 8.640719 1.812775
v 56.000000 10.685451 1.812775
v 56.000000 6.685452 -1.809591
v 56.000000 7.174269 -1.320774
v 56.000000 7.174268 1.323958
v 56.000000 8.151902 1.323958
v 56.000000 8.151903 -1.320774
v 56.000000 3.174268 1.323958
v 56.000000 2.685451 1.812775
v 56.000000 2.685452 -1.809591
v 56.000000 3.174268 -1.320774
v 56.000000 4.151903 1.323958
v 56.000000 4.151903 -1.320774
v 56.000000 4.640719 1.812775
v 56.000000 4.640720 -1.809591
v 56.000000 6.685451 1.812775
v 56.000000 11.174268 1.323958
v 56.000000 12.640719 1.812775
v 56.000000 12.640719 2.790409
v 56.000000 12.151902 1.323958
v 56.000000 4.151903 -3.276042
v 56.000000 3.174268 -3.276042
v 56.000000 3.174270 -5.920774
v 56.000000 4.151904 -5.920774
v 56.000000 4.151904 -7.876042
v 56.000000 3.174270 -7.876042
v 56.000000 2.685452 -7.387225
v 56.000000 4.640721 -7.387225
v 56.000000 2.685452 -6.409591
v 56.000000 4.640721 -6.409591
v 56.000000 6.685452 -6.409591
v 56.000000 7.174270 -5.920774
v 56.000000 2.685452 -2.787225
v 56.000000 4.640720 -2.787225
v 56.000000 6.685452 -2.787225
v 56.000000 7.174269 -3.276042
v 56.000000 8.151903 -3.276042
v 56.000000 8.640720 -2.787225
v 56.000000 8.640720 -1.809591
vn -1.0000 -0.0000 -0.0000
vn -0.0000 -0.0000 -1.0000
vn 1.0000 -0.0000 -0.0000
vn -0.0000 -0.0000 1.0000
vn -0.0000 -1.0000 -0.0000
vn -0.0000 1.0000 -0.0000
vn 0.7276 -0.4851 -0.4851
vn 0.7071 -0.0000 -0.7071
vn 0.7276 -0.4851 0.4851
vn 0.7071 -0.0000 0.7071
vn 0.7071 0.7071 -0.0000
vn 0.7276 0.4851 0.4851
vn 0.7276 0.4851 -0.4851
vn 0.7071 -0.7071 -0.0000
vt 0.625000 0.000000
vt 0.375000 0.250000
vt 0.375000 0.000000
vt 0.625000 0.250000
vt 0.375000 0.500000
vt 0.542194 0.635888
vt 0.532207 0.614138
vt 0.542194 0.614138
vt 0.465466 0.572290
vt 0.486353 0.564250
vt 0.486353 0.572290
vt 0.527214 0.572290
vt 0.501333 0.598059
vt 0.506326 0.572290
vt 0.465466 0.610118
vt 0.465466 0.602079
vt 0.486353 0.602079
vt 0.527214 0.677737
vt 0.506326 0.685776
vt 0.506326 0.677737
vt 0.404631 0.572290
vt 0.404631 0.602079
vt 0.625000 0.750000
vt 0.375000 1.000000
vt 0.375000 0.750000
vt 0.125000 0.750000
vt 0.125000 0.500000
vt 0.875000 0.500000
vt 0.625000 0.500000
vt 0.000000 0.000000
vt 0.855430 0.672124
vt 0.672124 0.733226
vt 0.794328 0.488817
vt 0.855430 0.549919
vt 0.672124 0.488817
vt 0.611022 0.672124
vt 0.611022 0.549919
vt 0.611021 0.672124
vt 0.855430 0.672124
vt 0.672124 0.488817
vt 0.611021 0.549919
vt 0.855430 0.672124
vt 0.855430 0.549919
vt 0.611022 0.549919
vt 0.672124 0.733226
vt 0.672124 0.488817
vt 0.794328 0.488817
vt 0.855430 0.549919
vt 0.672124 0.488817
vt 0.855430 0.672124
vt 0.532207 0.635888
vt 0.465466 0.564250
vt 0.532207 0.576309
vt 0.532207 0.598059
vt 0.527214 0.602079
vt 0.506326 0.602079
vt 0.491346 0.598059
vt 0.491346 0.576309
vt 0.506326 0.564250
vt 0.527214 0.564250
vt 0.501333 0.576309
vt 0.424605 0.685776
vt 0.424605 0.677737
vt 0.445492 0.677737
vt 0.445492 0.685776
vt 0.409625 0.689796
vt 0.419611 0.689796
vt 0.450485 0.689796
vt 0.409625 0.560230
vt 0.419611 0.560230
vt 0.460472 0.689796
vt 0.424605 0.564250
vt 0.445492 0.572290
vt 0.424605 0.572290
vt 0.445492 0.564250
vt 0.465466 0.685776
vt 0.465466 0.677737
vt 0.486353 0.677737
vt 0.486353 0.685776
vt 0.450486 0.560230
vt 0.460472 0.560230
vt 0.491346 0.560230
vt 0.491346 0.689796
vt 0.501333 0.689796
vt 0.527214 0.685776
vt 0.532207 0.689796
vt 0.501333 0.560230
vt 0.542194 0.689796
vt 0.532207 0.560230
vt 0.547187 0.685776
vt 0.547187 0.677737
vt 0.542194 0.560230
vt 0.547187 0.564250
vt 0.542194 0.673717
vt 0.547187 0.572290
vt 0.542194 0.576309
vt 0.542194 0.598059
vt 0.532207 0.673717
vt 0.501333 0.673717
vt 0.491346 0.673717
vt 0.491346 0.651967
vt 0.547187 0.602079
vt 0.501333 0.651967
vt 0.547187 0.610119
vt 0.547187 0.639908
vt 0.506326 0.647947
vt 0.547187 0.647947
vt 0.506326 0.639908
vt 0.542194 0.651967
vt 0.532207 0.651967
vt 0.527214 0.647947
vt 0.527214 0.639908
vt 0.501333 0.635888
vt 0.527214 0.610119
vt 0.506326 0.610119
vt 0.491346 0.635888
vt 0.486353 0.639908
vt 0.465466 0.639908
vt 0.501333 0.614138
vt 0.460472 0.635888
vt 0.450485 0.635888
vt 0.445492 0.639908
vt 0.424605 0.639908
vt 0.419611 0.635888
vt 0.491346 0.614138
vt 0.409625 0.635888
vt 0.409625 0.614138
vt 0.486353 0.610118
vt 0.419611 0.614138
vt 0.424605 0.610119
vt 0.445492 0.610119
vt 0.450485 0.614138
vt 0.450485 0.598059
vt 0.450486 0.576309
vt 0.460472 0.576309
vt 0.460472 0.614138
vt 0.460472 0.598059
vt 0.465466 0.647947
vt 0.486353 0.647947
vt 0.460472 0.651967
vt 0.460472 0.673717
vt 0.450485 0.673717
vt 0.419611 0.673717
vt 0.450485 0.651967
vt 0.409625 0.673717
vt 0.445492 0.647947
vt 0.424605 0.647947
vt 0.419611 0.651967
vt 0.409625 0.651967
vt 0.404631 0.677737
vt 0.404631 0.647947
vt 0.404631 0.685776
vt 0.404631 0.639908
vt 0.404631 0.564250
vt 0.404631 0.610119
vt 0.419611 0.576309
vt 0.445492 0.602079
vt 0.424605 0.602079
vt 0.419611 0.598059
vt 0.409625 0.576309
vt 0.409625 0.598059
vt 0.625000 1.000000
vt 0.875000 0.750000
s 0
f 3/1/1 4/2/1 1/3/1
f 5/4/2 8/5/2 4/2/2
f 30/6/3 32/7/3 42/8/3
f 62/9/3 56/10/3 63/11/3
f 67/12/3 48/13/3 66/14/3
f 152/15/3 151/16/3 46/17/3
f 108/18/3 87/19/3 105/20/3
f 8/5/3 142/21/3 146/22/3
f 7/23/4 1/24/4 6/25/4
f 8/5/5 1/26/5 4/27/5
f 5/28/6 7/23/6 9/29/6
s 1
f 2/30/7 70/31/7 69/30/7
f 2/30/8 69/30/8 68/32/8
f 2/30/9 49/33/9 59/34/9
f 2/30/10 50/35/10 49/33/10
f 2/30/11 67/36/11 57/37/11
f 2/30/12 57/37/12 50/35/12
f 2/30/13 68/32/13 67/36/13
f 2/30/14 59/34/14 70/31/14
f 10/30/7 66/31/7 65/30/7
f 10/30/8 65/30/8 64/32/8
f 10/30/9 53/33/9 58/34/9
f 10/30/10 51/35/10 53/33/10
f 10/30/11 63/38/11 56/37/11
f 10/30/12 56/37/12 51/35/12
f 10/30/13 64/32/13 63/38/13
f 10/30/14 58/34/14 66/31/14
f 11/30/7 62/39/7 61/30/7
f 11/30/8 61/30/8 145/32/8
f 11/30/9 52/33/9 55/34/9
f 11/30/10 54/40/10 52/33/10
f 11/30/11 144/38/11 60/41/11
f 11/30/12 60/41/12 54/40/12
f 11/30/13 145/32/13 144/38/13
f 11/30/14 55/34/14 62/39/14
f 12/30/7 143/42/7 137/30/7
f 12/30/8 137/30/8 136/32/8
f 12/30/9 138/33/9 141/43/9
f 12/30/10 139/40/10 138/33/10
f 12/30/11 142/38/11 140/41/11
f 12/30/12 140/41/12 139/40/12
f 12/30/13 136/32/13 142/38/13
f 12/30/14 141/43/14 143/42/14
f 13/30/7 44/31/7 42/30/7
f 13/30/8 42/30/8 32/32/8
f 13/30/9 41/33/9 43/34/9
f 13/30/10 40/40/10 41/33/10
f 13/30/11 36/36/11 39/44/11
f 13/30/12 39/44/12 40/40/12
f 13/30/13 32/32/13 36/36/13
f 13/30/14 43/34/14 44/31/14
f 14/30/7 37/31/7 34/30/7
f 14/30/8 34/30/8 33/45/8
f 14/30/9 48/33/9 38/34/9
f 14/30/10 47/40/10 48/33/10
f 14/30/11 45/38/11 46/44/11
f 14/30/12 46/44/12 47/40/12
f 14/30/13 33/45/13 45/38/13
f 14/30/14 38/34/14 37/31/14
f 15/30/7 152/31/7 120/30/7
f 15/30/8 120/30/8 117/45/8
f 15/30/9 150/33/9 151/34/9
f 15/30/10 149/40/10 150/33/10
f 15/30/11 116/36/11 148/44/11
f 15/30/12 148/44/12 149/40/12
f 15/30/13 117/45/13 116/36/13
f 15/30/14 151/34/14 152/31/14
f 16/30/7 128/39/7 126/30/7
f 16/30/8 126/30/8 124/32/8
f 16/30/9 134/33/9 147/34/9
f 16/30/10 135/46/10 134/33/10
f 16/30/11 123/36/11 146/44/11
f 16/30/12 146/44/12 135/46/12
f 16/30/13 124/32/13 123/36/13
f 16/30/14 147/34/14 128/39/14
f 17/30/7 29/39/7 26/30/7
f 17/30/8 26/30/8 25/45/8
f 17/30/9 30/47/9 35/34/9
f 17/30/10 31/40/10 30/47/10
f 17/30/11 27/36/11 28/37/11
f 17/30/12 28/37/12 31/40/12
f 17/30/13 25/45/13 27/36/13
f 17/30/14 35/34/14 29/39/14
f 18/30/7 132/39/7 104/30/7
f 18/30/8 104/30/8 103/32/8
f 18/30/9 133/33/9 131/34/9
f 18/30/10 130/40/10 133/33/10
f 18/30/11 112/36/11 115/44/11
f 18/30/12 115/44/12 130/40/12
f 18/30/13 103/32/13 112/36/13
f 18/30/14 131/34/14 132/39/14
f 19/30/7 113/39/7 99/30/7
f 19/30/8 99/30/8 96/45/8
f 19/30/9 119/33/9 114/43/9
f 19/30/10 118/46/10 119/33/10
f 19/30/11 95/38/11 129/44/11
f 19/30/12 129/44/12 118/46/12
f 19/30/13 96/45/13 95/38/13
f 19/30/14 114/43/14 113/39/14
f 20/30/7 106/39/7 94/30/7
f 20/30/8 94/30/8 91/32/8
f 20/30/9 125/33/9 127/48/9
f 20/30/10 121/40/10 125/33/10
f 20/30/11 90/36/11 122/37/11
f 20/30/12 122/37/12 121/40/12
f 20/30/13 91/32/13 90/36/13
f 20/30/14 127/48/14 106/39/14
f 21/30/7 89/31/7 78/30/7
f 21/30/8 78/30/8 77/45/8
f 21/30/9 110/33/9 111/43/9
f 21/30/10 109/49/10 110/33/10
f 21/30/11 88/36/11 108/44/11
f 21/30/12 108/44/12 109/49/12
f 21/30/13 77/45/13 88/36/13
f 21/30/14 111/43/14 89/31/14
f 22/30/7 87/50/7 76/30/7
f 22/30/8 76/30/8 75/32/8
f 22/30/9 101/33/9 105/43/9
f 22/30/10 102/40/10 101/33/10
f 22/30/11 86/38/11 107/44/11
f 22/30/12 107/44/12 102/40/12
f 22/30/13 75/32/13 86/38/13
f 22/30/14 105/43/14 87/50/14
f 23/30/7 85/42/7 74/30/7
f 23/30/8 74/30/8 73/32/8
f 23/30/9 98/33/9 100/43/9
f 23/30/10 97/49/10 98/33/10
f 23/30/11 79/36/11 82/44/11
f 23/30/12 82/44/12 97/49/12
f 23/30/13 73/32/13 79/36/13
f 23/30/14 100/43/14 85/42/14
f 24/30/7 80/31/7 72/30/7
f 24/30/8 72/30/8 71/32/8
f 24/30/9 93/33/9 81/43/9
f 24/30/10 92/49/10 93/33/10
f 24/30/11 84/38/11 83/44/11
f 24/30/12 83/44/12 92/49/12
f 24/30/13 71/32/13 84/38/13
f 24/30/14 81/43/14 80/31/14
s 0
f 3/1/1 5/4/1 4/2/1
f 5/4/2 9/29/2 8/5/2
f 30/6/3 31/51/3 32/7/3
f 62/9/3 55/52/3 56/10/3
f 67/12/3 68/53/3 40/54/3
f 40/54/3 39/55/3 38/56/3
f 48/13/3 47/57/3 64/58/3
f 40/54/3 38/56/3 48/13/3
f 58/59/3 57/60/3 67/12/3
f 67/12/3 40/54/3 48/13/3
f 48/13/3 64/58/3 65/61/3
f 66/14/3 58/59/3 67/12/3
f 48/13/3 65/61/3 66/14/3
f 80/62/3 81/63/3 82/64/3
f 80/62/3 82/64/3 79/65/3
f 6/25/3 71/66/3 72/67/3
f 72/67/3 80/62/3 79/65/3
f 72/67/3 79/65/3 73/68/3
f 7/23/3 6/25/3 72/67/3
f 139/69/3 8/5/3 9/29/3
f 138/70/3 139/69/3 9/29/3
f 7/23/3 72/67/3 73/68/3
f 7/23/3 73/68/3 74/71/3
f 141/72/3 138/70/3 9/29/3
f 144/73/3 143/74/3 141/72/3
f 60/75/3 144/73/3 141/72/3
f 7/23/3 74/71/3 85/76/3
f 85/76/3 100/77/3 107/78/3
f 85/76/3 107/78/3 86/79/3
f 54/80/3 60/75/3 141/72/3
f 56/10/3 55/52/3 52/81/3
f 54/80/3 141/72/3 9/29/3
f 51/82/3 56/10/3 52/81/3
f 52/81/3 54/80/3 9/29/3
f 85/76/3 86/79/3 75/83/3
f 76/84/3 87/19/3 88/85/3
f 7/23/3 85/76/3 75/83/3
f 76/84/3 88/85/3 77/86/3
f 7/23/3 75/83/3 76/84/3
f 51/82/3 52/81/3 9/29/3
f 57/60/3 58/59/3 53/87/3
f 53/87/3 51/82/3 9/29/3
f 7/23/3 76/84/3 77/86/3
f 7/23/3 77/86/3 78/88/3
f 50/89/3 57/60/3 53/87/3
f 50/89/3 53/87/3 9/29/3
f 7/23/3 78/88/3 89/90/3
f 7/23/3 89/90/3 111/91/3
f 49/92/3 50/89/3 9/29/3
f 59/93/3 49/92/3 9/29/3
f 9/29/3 7/23/3 111/91/3
f 9/29/3 111/91/3 110/94/3
f 70/95/3 59/93/3 9/29/3
f 40/54/3 68/53/3 69/96/3
f 40/54/3 69/96/3 70/95/3
f 41/97/3 40/54/3 70/95/3
f 109/98/3 108/18/3 105/20/3
f 101/99/3 102/100/3 103/101/3
f 109/98/3 105/20/3 101/99/3
f 41/97/3 70/95/3 9/29/3
f 43/102/3 41/97/3 9/29/3
f 109/98/3 101/99/3 103/101/3
f 109/98/3 103/101/3 104/103/3
f 44/104/3 43/102/3 9/29/3
f 30/6/3 42/8/3 44/104/3
f 35/105/3 30/6/3 44/104/3
f 110/94/3 109/98/3 104/103/3
f 110/94/3 104/103/3 132/106/3
f 35/105/3 44/104/3 9/29/3
f 29/107/3 35/105/3 9/29/3
f 110/94/3 132/106/3 131/108/3
f 29/107/3 9/29/3 110/94/3
f 26/109/3 29/107/3 110/94/3
f 25/110/3 26/109/3 110/94/3
f 27/111/3 25/110/3 110/94/3
f 27/111/3 110/94/3 131/108/3
f 32/7/3 31/51/3 28/112/3
f 28/112/3 27/111/3 131/108/3
f 28/112/3 131/108/3 133/113/3
f 36/114/3 32/7/3 28/112/3
f 38/56/3 39/55/3 36/114/3
f 37/115/3 38/56/3 36/114/3
f 36/114/3 28/112/3 133/113/3
f 130/116/3 115/117/3 114/118/3
f 36/114/3 133/113/3 130/116/3
f 34/119/3 37/115/3 36/114/3
f 34/119/3 36/114/3 130/116/3
f 130/116/3 114/118/3 119/120/3
f 118/121/3 129/122/3 127/123/3
f 34/119/3 130/116/3 119/120/3
f 118/121/3 127/123/3 125/124/3
f 34/119/3 119/120/3 118/121/3
f 33/125/3 34/119/3 118/121/3
f 125/124/3 121/126/3 124/127/3
f 33/125/3 118/121/3 125/124/3
f 45/128/3 33/125/3 125/124/3
f 125/124/3 124/127/3 126/129/3
f 126/129/3 128/130/3 116/131/3
f 126/129/3 116/131/3 117/132/3
f 46/17/3 45/128/3 125/124/3
f 64/58/3 47/57/3 46/17/3
f 62/9/3 63/11/3 64/58/3
f 149/133/3 145/134/3 61/135/3
f 61/135/3 62/9/3 64/58/3
f 125/124/3 126/129/3 117/132/3
f 125/124/3 117/132/3 120/136/3
f 61/135/3 64/58/3 46/17/3
f 150/137/3 149/133/3 61/135/3
f 151/16/3 150/137/3 61/135/3
f 46/17/3 125/124/3 120/136/3
f 46/17/3 120/136/3 152/15/3
f 151/16/3 61/135/3 46/17/3
f 108/18/3 88/85/3 87/19/3
f 113/138/3 114/118/3 115/117/3
f 112/139/3 103/101/3 102/100/3
f 113/138/3 115/117/3 112/139/3
f 99/140/3 113/138/3 112/139/3
f 112/139/3 102/100/3 107/78/3
f 107/78/3 100/77/3 98/141/3
f 97/142/3 82/64/3 81/63/3
f 112/139/3 107/78/3 98/141/3
f 97/142/3 81/63/3 93/143/3
f 112/139/3 98/141/3 97/142/3
f 99/140/3 112/139/3 97/142/3
f 99/140/3 97/142/3 93/143/3
f 96/144/3 99/140/3 93/143/3
f 96/144/3 93/143/3 92/145/3
f 127/123/3 129/122/3 95/146/3
f 95/146/3 96/144/3 92/145/3
f 106/147/3 127/123/3 95/146/3
f 94/148/3 106/147/3 95/146/3
f 94/148/3 95/146/3 92/145/3
f 91/149/3 94/148/3 92/145/3
f 91/149/3 92/145/3 83/150/3
f 90/151/3 91/149/3 83/150/3
f 84/152/3 71/66/3 6/25/3
f 122/153/3 90/151/3 83/150/3
f 83/150/3 84/152/3 6/25/3
f 8/5/3 139/69/3 140/154/3
f 8/5/3 140/154/3 142/21/3
f 83/150/3 6/25/3 8/5/3
f 124/127/3 121/126/3 122/153/3
f 122/153/3 83/150/3 8/5/3
f 123/155/3 124/127/3 122/153/3
f 146/22/3 123/155/3 122/153/3
f 137/156/3 143/74/3 144/73/3
f 144/73/3 145/134/3 149/133/3
f 148/157/3 116/131/3 128/130/3
f 144/73/3 149/133/3 148/157/3
f 137/156/3 144/73/3 148/157/3
f 148/157/3 128/130/3 147/158/3
f 148/157/3 147/158/3 134/159/3
f 136/160/3 137/156/3 148/157/3
f 136/160/3 148/157/3 134/159/3
f 136/160/3 134/159/3 135/161/3
f 142/21/3 136/160/3 135/161/3
f 146/22/3 122/153/3 8/5/3
f 142/21/3 135/161/3 146/22/3
f 7/23/4 3/162/4 1/24/4
f 8/5/5 6/25/5 1/26/5
f 5/28/6 3/163/6 7/23/6
