# Blender 4.5.3 LTS
# www.blender.org
o Cylinder
v -0.210477 12.016758 -1.317059
v 0.695409 0.000000 -0.792485
v 1.019231 11.846834 -0.850528
v 0.410313 0.000000 0.985495
v -0.951291 0.000000 0.544590
v -0.695328 3.649555 0.008238
v 0.973650 0.011938 -0.034427
v 0.616340 12.017221 0.656536
v -0.793613 12.004333 0.427797
v -1.045486 11.934265 -0.472832
v -0.964991 0.003797 -0.691627
v -0.157700 8.562408 0.136759
v 0.792638 3.265134 -1.406407
v 0.376197 3.016799 0.293034
v -0.305441 3.020244 -1.678995
v -0.253923 8.622058 -1.997766
v 0.776648 8.541545 -0.266311
v 0.267117 12.711918 -0.540488
v -0.253885 12.726701 -0.002098
vn -0.9400 -0.1972 0.2782
vn 0.3822 -0.2206 0.8974
vn 0.9860 -0.0153 -0.1663
vn 0.2525 -0.0573 -0.9659
vn -0.0585 -0.2990 -0.9525
vn 0.9352 -0.0921 -0.3418
vn 0.6121 0.0356 0.7900
vn -0.2554 0.0027 0.9668
vn -0.3041 0.1594 0.9392
vn -0.9067 -0.0138 0.4215
vn -0.7903 -0.0276 -0.6121
vn -0.8853 0.0026 -0.4651
vn 0.9651 -0.0247 0.2608
vn -0.4318 0.7876 -0.4395
vn 0.4041 0.8374 0.3681
vn 0.3584 0.5752 -0.7353
vn 0.7713 0.6218 0.1359
vn 0.0030 -1.0000 -0.0005
vn -0.7104 0.1471 -0.6883
vn -0.1581 -0.1122 0.9810
vn 0.3965 0.0640 0.9158
vn 0.2755 -0.1856 -0.9432
vn 0.6195 0.0344 -0.7843
vn 0.8684 0.1202 0.4811
vn -0.1268 0.2205 0.9671
vn -0.4852 0.0302 0.8739
vn -0.9974 0.0716 0.0113
vn 0.8398 0.0341 0.5418
vn 0.3705 0.1781 -0.9116
vn -0.5026 0.7537 -0.4235
vn -0.1357 0.5796 0.8036
vn -0.7439 0.6495 0.1575
vt 0.492194 0.861737
vt 0.365013 1.000000
vt 0.208962 0.997357
vt 0.595027 1.000000
vt 0.639543 0.856001
vt 0.886255 0.638483
vt 0.799612 0.992049
vt 0.729740 0.501602
vt 0.989662 0.625000
vt 0.956591 0.854071
vt 1.000000 0.500000
vt 0.885959 0.500000
vt 0.559442 0.625000
vt 0.383936 0.649945
vt 0.332833 0.500000
vt 0.562052 0.500000
vt 0.096833 0.502368
vt 0.049624 0.857658
vt 0.054477 0.625000
vt 0.045822 1.000000
vt 0.377205 1.000000
vt 0.023113 1.000000
vt 0.853312 1.000000
vt 0.968606 1.000000
vt 0.982437 0.220403
vt 0.834747 0.043631
vt 0.562182 0.142281
vt 0.626300 0.432616
vt 0.899055 0.420970
s 0
f 12/1/1 9/2/1 10/3/1
f 8/4/2 12/1/2 17/5/2
f 13/6/3 3/7/3 7/8/3
f 15/9/4 16/10/4 13/6/4
f 11/11/5 15/9/5 2/12/5
f 2/12/6 13/6/6 7/8/6
f 7/8/7 17/5/7 14/13/7
f 12/1/8 6/14/8 14/13/8
f 6/14/9 5/15/9 4/16/9
f 10/3/10 11/17/10 6/14/10
f 16/18/11 15/19/11 11/17/11
f 10/3/12 16/18/12 11/17/12
f 8/4/13 17/5/13 3/7/13
f 1/20/14 19/21/14 18/22/14
f 8/4/15 18/23/15 19/21/15
f 1/24/16 18/23/16 3/7/16
f 3/7/17 18/23/17 8/4/17
f 7/25/18 4/26/18 5/27/18 11/28/18 2/29/18
f 16/18/19 10/3/19 1/20/19
f 12/1/20 8/4/20 9/2/20
f 14/13/21 17/5/21 12/1/21
f 2/12/22 15/9/22 13/6/22
f 13/6/23 16/10/23 3/7/23
f 4/16/24 7/8/24 14/13/24
f 14/13/25 6/14/25 4/16/25
f 12/1/26 10/3/26 6/14/26
f 6/14/27 11/17/27 5/15/27
f 7/8/28 3/7/28 17/5/28
f 1/24/29 3/7/29 16/10/29
f 1/20/30 10/3/30 19/21/30
f 9/2/31 8/4/31 19/21/31
f 10/3/32 9/2/32 19/21/32
